<?xml version="1.0" encoding="iso-8859-1"?>
<!-- Uploaded to: SVG Repo, www.svgrepo.com, Generator: SVG Repo Mixer Tools -->
<svg height="800px" width="800px" version="1.1" id="Layer_1" xmlns="http://www.w3.org/2000/svg" xmlns:xlink="http://www.w3.org/1999/xlink" 
	 viewBox="0 0 512.213 512.213" xml:space="preserve">
<g transform="translate(1 1)">
	<path style="fill:#FFE100;" d="M366.04,255.213L366.04,255.213h-34.133v-93.867h-153.6v93.867h-34.133v2.56
		c0,9.387-0.853,17.92-2.56,27.307l-40.107,192l76.8,25.6l34.987-153.6c4.267-19.627,22.187-34.133,42.667-34.133l0,0
		c19.627,0,36.693,12.8,41.813,32.427L340.44,502.68l76.8-25.6l-47.787-189.44C366.893,277.4,366.04,266.307,366.04,255.213"/>
	<path style="fill:#FFA800;" d="M369.453,287.64c-2.56-10.24-3.413-21.333-3.413-32.427h-25.6c0,11.093,0.853,22.187,3.413,32.427
		l47.787,189.44L338.733,495l1.707,7.68l76.8-25.6L369.453,287.64z"/>
	<path style="fill:#FFFFFF;" d="M140.76,287.64c2.56-10.24,3.413-21.333,3.413-32.427h25.6c0,11.093-0.853,22.187-3.413,32.427
		l-47.787,189.44L171.48,495l-1.707,7.68l-76.8-25.6L140.76,287.64z"/>
	<path style="fill:#63D3FD;" d="M371.16,35.907c-3.413-3.413-6.827-5.973-10.24-8.533l0,0c-6.827-4.267-14.507-7.68-22.187-9.387
		C279,4.333,232.92,4.333,173.187,17.987c-8.533,1.707-16.213,5.12-23.04,10.24c-3.413,2.56-6.827,5.12-9.387,7.68l-98.987,91.307
		l43.52,42.667l58.88-51.2v136.533h34.133v-93.867h153.6v93.867h34.133V118.68l59.733,51.2l42.667-42.667L371.16,35.907z"/>
	<g>
		<path style="fill:#FFE100;" d="M289.24,9.453v151.893h34.133V14.573C311.427,12.867,300.333,11.16,289.24,9.453"/>
		<path style="fill:#FFE100;" d="M186.84,14.573v146.773h34.133V9.453C209.88,11.16,198.787,12.867,186.84,14.573"/>
	</g>
	<path d="M340.44,511.213c-1.707,0-2.56,0-4.267-0.853c-1.707-0.853-3.413-3.413-4.267-5.12L289.24,349.933
		c-4.267-15.36-17.92-25.6-34.133-25.6s-30.72,11.093-34.133,27.307l-34.987,153.6c-0.853,2.56-1.707,4.267-4.267,5.12
		c-1.707,0.853-3.413,0.853-5.973,0l-76.8-25.6c-4.267-1.707-6.827-5.973-5.973-10.24l40.107-192c1.707-8.533,2.56-17.067,2.56-25.6
		v-1.707c0-5.12,3.413-8.533,8.533-8.533h25.6v-85.333c0-5.12,3.413-8.533,8.533-8.533h153.6c5.12,0,8.533,3.413,8.533,8.533v85.333
		h25.6c2.56,0,4.267,0.853,5.973,2.56c1.707,1.707,2.56,3.413,2.56,5.973c0,10.24,0.853,20.48,3.413,30.72l47.787,189.44
		c0.853,4.267-1.707,8.533-5.973,10.24l-76.8,25.6C342.147,511.213,341.293,511.213,340.44,511.213z M255.96,306.413
		c23.893,0,44.373,16.213,50.347,38.4l40.107,146.773L407,471.107l-46.08-181.76c-1.707-8.533-3.413-17.067-3.413-25.6h-25.6
		c-5.12,0-8.533-3.413-8.533-8.533V169.88H186.84v85.333c0,5.12-3.413,8.533-8.533,8.533h-25.6c0,7.68-0.853,15.36-2.56,23.04
		l-38.4,184.32l60.587,20.48l32.427-144.213C210.733,323.48,231.213,306.413,255.96,306.413z"/>
	<path d="M366.04,263.747h-34.133c-5.12,0-8.533-3.413-8.533-8.533V169.88H186.84v85.333c0,5.12-3.413,8.533-8.533,8.533h-34.133
		c-5.12,0-8.533-3.413-8.533-8.533v-117.76l-44.373,38.4c-3.413,2.56-8.533,2.56-11.947,0L35.8,133.187
		c-1.707-1.707-2.56-3.413-2.56-5.973s0.853-4.267,2.56-5.973l98.133-91.307c3.413-3.413,6.827-5.973,11.093-8.533
		c8.533-5.973,17.067-9.387,25.6-11.093c60.587-13.653,108.373-12.8,169.813,0c8.533,1.707,17.067,5.973,24.747,11.093
		c4.267,2.56,8.533,5.973,11.947,9.387l97.28,91.307c1.707,1.707,2.56,3.413,2.56,5.973s-0.853,4.267-2.56,5.973l-42.667,42.667
		c-3.413,3.413-8.533,3.413-11.947,0.853l-45.227-40.107v117.76C374.573,260.333,371.16,263.747,366.04,263.747z M340.44,246.68
		h17.067v-128c0-3.413,1.707-5.973,5.12-7.68c3.413-1.707,6.827-0.853,9.387,0.853l53.76,46.08l30.72-30.72L365.187,41.88l0,0
		c-2.56-2.56-5.973-5.12-9.387-7.68c-5.973-4.267-12.8-6.827-19.627-8.533c-58.88-12.8-104.107-12.8-162.133,0
		c-6.827,1.707-13.653,4.267-19.627,8.533c-3.413,1.707-5.973,4.267-8.533,6.827l-91.307,86.187l31.573,30.72l52.907-46.08
		c2.56-2.56,5.973-2.56,9.387-1.707c3.413,1.707,5.12,4.267,5.12,7.68v128h17.067v-84.48c0-5.12,3.413-8.533,8.533-8.533h153.6
		c5.12,0,8.533,3.413,8.533,8.533v85.333H340.44z"/>
	<path d="M203.907,186.947c-5.12,0-8.533-3.413-8.533-8.533v-17.067c0-5.12,3.413-8.533,8.533-8.533c5.12,0,8.533,3.413,8.533,8.533
		v17.067C212.44,183.533,209.027,186.947,203.907,186.947z"/>
	<path d="M306.307,186.947c-5.12,0-8.533-3.413-8.533-8.533v-17.067c0-5.12,3.413-8.533,8.533-8.533s8.533,3.413,8.533,8.533v17.067
		C314.84,183.533,311.427,186.947,306.307,186.947z"/>
	<path d="M323.373,169.88H289.24c-5.12,0-8.533-3.413-8.533-8.533V9.453c0-2.56,0.853-5.12,2.56-5.973
		c1.707-1.707,4.267-2.56,6.827-2.56c11.093,0.853,23.04,2.56,34.987,5.12c4.267,1.707,6.827,5.12,6.827,8.533v146.773
		C331.907,166.467,328.493,169.88,323.373,169.88z M297.773,152.813h17.067V22.253c-5.973-0.853-11.947-1.707-17.067-2.56V152.813z"
		/>
	<path d="M220.973,169.88H186.84c-5.12,0-8.533-3.413-8.533-8.533V14.573c0-4.267,2.56-7.68,6.827-8.533
		c11.947-2.56,23.893-4.267,34.987-5.12c2.56,0,5.12,0.853,6.827,2.56s2.56,3.413,2.56,5.973v151.893
		C229.507,166.467,226.093,169.88,220.973,169.88z M195.373,152.813h17.067V19.693c-5.973,0.853-11.093,1.707-17.067,2.56V152.813z"
		/>
	<path id="SVGCleanerId_0" d="M255.107,58.947c-13.653,0-27.307-4.267-39.253-11.947c-1.707-1.707-3.413-4.267-3.413-7.68V9.453
		c0-4.267,3.413-7.68,7.68-8.533c23.893-2.56,46.08-2.56,69.973,0c4.267,0.853,7.68,4.267,7.68,8.533V39.32
		c0,2.56-1.707,5.12-3.413,6.827C282.413,54.68,268.76,58.947,255.107,58.947z M229.507,35.053c15.36,9.387,35.84,9.387,51.2,0
		V17.987c-17.067-1.707-34.133-1.707-51.2,0V35.053z"/>
	<path d="M280.707,221.08h-51.2c-5.12,0-8.533-3.413-8.533-8.533c0-5.12,3.413-8.533,8.533-8.533h51.2
		c5.12,0,8.533,3.413,8.533,8.533C289.24,217.667,285.827,221.08,280.707,221.08z"/>
	<g>
		<path id="SVGCleanerId_0_1_" d="M255.107,58.947c-13.653,0-27.307-4.267-39.253-11.947c-1.707-1.707-3.413-4.267-3.413-7.68V9.453
			c0-4.267,3.413-7.68,7.68-8.533c23.893-2.56,46.08-2.56,69.973,0c4.267,0.853,7.68,4.267,7.68,8.533V39.32
			c0,2.56-1.707,5.12-3.413,6.827C282.413,54.68,268.76,58.947,255.107,58.947z M229.507,35.053c15.36,9.387,35.84,9.387,51.2,0
			V17.987c-17.067-1.707-34.133-1.707-51.2,0V35.053z"/>
	</g>
</g>
</svg>