<?xml version="1.0" encoding="iso-8859-1"?>
<!-- Uploaded to: SVG Repo, www.svgrepo.com, Generator: SVG Repo Mixer Tools -->
<svg height="800px" width="800px" version="1.1" id="Capa_1" xmlns="http://www.w3.org/2000/svg" xmlns:xlink="http://www.w3.org/1999/xlink" 
	 viewBox="0 0 464 464" xml:space="preserve">
<g>
	<path style="fill:#E88470;" d="M227.678,33.91c0.375-0.749,1.142-1.268,2.036-1.268h4.571c0.895,0,1.661,0.519,2.036,1.268
		l2.915-1.457l14.081-13.794l-0.895-0.448c-2.71-1.355-4.422-4.125-4.422-7.156V8c0-4.418-3.582-8-8-8h-16c-4.418,0-8,3.582-8,8
		v3.056c0,3.03-1.712,5.8-4.422,7.156l-0.874,0.437l14.124,13.837L227.678,33.91z"/>
	<path style="fill:#FFEBE1;" d="M232,104l31.921-79.803l-14.733,26.349c-1.235,2.209-4.258,2.586-5.998,0.749l-9.005-9.51h-4.338
		l-9.005,9.51c-1.74,1.837-4.763,1.46-5.998-0.749L200,24L232,104z M232,56c2.209,0,4,1.791,4,4s-1.791,4-4,4c-2.209,0-4-1.791-4-4
		S229.791,56,232,56z M232,72c2.209,0,4,1.791,4,4s-1.791,4-4,4c-2.209,0-4-1.791-4-4S229.791,72,232,72z"/>
	<polygon style="fill:#FFEBE1;" points="264.03,24.014 264.031,24 264.025,24.011 	"/>
	<path style="fill:#7D5050;" d="M224,392c-13.234,0-24,10.766-24,24v24c0,4.414-3.59,8-8,8h-8c-4.418,0-8,3.578-8,8s3.582,8,8,8h8
		c13.234,0,24-10.766,24-24v-24c0-4.414,3.59-8,8-8V392z"/>
	<path style="fill:#7D5050;" d="M240,408c4.41,0,8,3.586,8,8v24c0,13.234,10.766,24,24,24h8c4.418,0,8-3.578,8-8s-3.582-8-8-8h-8
		c-4.41,0-8-3.586-8-8v-24c0-13.234-10.766-24-24-24V408z"/>
	<path style="fill:#6B3C41;" d="M309.219,106.959l-14.68-68.835l0,0L264.03,24.014l-0.005-0.002l-0.104,0.186L232,104l-32-80
		l-30.539,14.123l0,0l-14.68,68.835c-1.844,8.645-2.374,17.518-1.574,26.321L160,208h17.455L176,224l40.028,11.437l7.972-9.701V392
		v16v8c0,4.418,3.582,8,8,8s8-3.582,8-8v-8v-16V225.714l8,9.715L288,224l-1.455-16H304l6.793-74.72
		C311.593,124.477,311.062,115.604,309.219,106.959z M228,164c0-2.209,1.791-4,4-4c2.209,0,4,1.791,4,4s-1.791,4-4,4
		C229.791,168,228,166.209,228,164z M232,128c-2.209,0-4-1.791-4-4s1.791-4,4-4c2.209,0,4,1.791,4,4S234.209,128,232,128z
		 M180.727,172l-3.756-41.314c-0.638-7.017,0.455-14.083,3.182-20.579L184,136L180.727,172z M287.029,130.686L283.273,172L280,136
		l3.846-25.893C286.574,116.603,287.666,123.669,287.029,130.686z"/>
	<path style="fill:#FFE1C8;" d="M220.842,51.295l9.005-9.51h-0.133c-0.895,0-1.661-0.519-2.036-1.268l-8.37,4.185
		c-1.52,0.76-3.308-0.345-3.308-2.044V31.77c0-1.699,1.788-2.804,3.308-2.044l5.519,2.76l-14.124-13.837l-0.277-0.271
		c-1.344-1.317-3.498-1.306-4.829,0.025L200,24l14.843,26.547C216.078,52.756,219.101,53.133,220.842,51.295z"/>
	<path style="fill:#FFE1C8;" d="M244.692,29.726c1.52-0.76,3.308,0.345,3.308,2.044v10.889c0,1.699-1.788,2.804-3.308,2.044
		l-8.37-4.185c-0.375,0.749-1.142,1.268-2.036,1.268h-0.101l9.005,9.51c1.74,1.837,4.763,1.46,5.998-0.749l14.733-26.349
		l0.104-0.186L264.031,24l-5.598-5.598c-1.331-1.331-3.485-1.342-4.829-0.025l-0.287,0.281l-14.081,13.794L244.692,29.726z"/>
	<path style="fill:#D2504B;" d="M227.429,34.929c0-0.368,0.095-0.71,0.249-1.018l-2.851-1.425l-5.519-2.76
		c-1.52-0.76-3.308,0.345-3.308,2.044v10.889c0,1.699,1.788,2.804,3.308,2.044l8.37-4.185c-0.154-0.308-0.249-0.65-0.249-1.018
		V34.929z"/>
	<path style="fill:#D2504B;" d="M236.571,39.5c0,0.368-0.095,0.71-0.249,1.018l8.37,4.185c1.52,0.76,3.308-0.345,3.308-2.044V31.77
		c0-1.699-1.788-2.804-3.308-2.044l-5.455,2.728l-2.915,1.457c0.154,0.308,0.249,0.65,0.249,1.018V39.5z"/>
	<path style="fill:#BE3C3C;" d="M236.322,40.518c0.154-0.308,0.249-0.65,0.249-1.018v-4.571c0-0.368-0.095-0.71-0.249-1.018
		c-0.375-0.749-1.142-1.268-2.036-1.268h-4.571c-0.895,0-1.661,0.519-2.036,1.268c-0.154,0.308-0.249,0.65-0.249,1.018V39.5
		c0,0.368,0.095,0.71,0.249,1.018c0.375,0.749,1.142,1.268,2.036,1.268h0.133h4.338h0.101
		C235.18,41.786,235.947,41.267,236.322,40.518z"/>
	<circle style="fill:#FFD7B4;" cx="232" cy="60" r="4"/>
	<circle style="fill:#FFD7B4;" cx="232" cy="76" r="4"/>
	<circle style="fill:#7D5050;" cx="232" cy="124" r="4"/>
	<circle style="fill:#7D5050;" cx="232" cy="164" r="4"/>
</g>
</svg>