<?xml version="1.0" encoding="iso-8859-1"?>
<!-- Uploaded to: SVG Repo, www.svgrepo.com, Generator: SVG Repo Mixer Tools -->
<svg height="800px" width="800px" version="1.1" id="Layer_1" xmlns="http://www.w3.org/2000/svg" xmlns:xlink="http://www.w3.org/1999/xlink" 
	 viewBox="0 0 512 512" xml:space="preserve">
<g>
	<g>
		<path style="fill:#DEDEE1;" d="M512,331.007H8.986L0,357.181c0,0,6.735,17.964,71.857,17.964h387.178
			C459.034,375.145,512.141,371.834,512,331.007"/>
		<path style="fill:#DEDEE1;" d="M251.272,203.318L251.272,203.318c-6.894-6.886-6.894-18.07,0-24.964l18.732-18.723
			c6.886-6.894,18.07-6.894,24.964,0c6.894,6.894,6.894,18.07,0,24.964l-18.723,18.723
			C269.342,210.212,258.166,210.212,251.272,203.318"/>
		<path style="fill:#DEDEE1;" d="M304.237,246.387L304.237,246.387c-6.894-6.894-6.894-18.07,0-24.964l18.732-18.723
			c6.886-6.894,18.07-6.894,24.964,0c6.894,6.886,6.894,18.07,0,24.964l-18.723,18.723
			C322.308,253.281,311.132,253.281,304.237,246.387"/>
	</g>
	<path style="fill:#4482C3;" d="M404.212,258.369c-11.308-2.428-32.538-14.548-56.717-30.27l-18.291,18.291
		c-6.894,6.894-18.07,6.894-24.964,0c-6.894-6.903-6.894-18.07,0-24.973l13.427-13.418c-9.066-6.303-18.15-12.756-26.977-19.129
		l-14.451,14.451c-6.894,6.894-18.07,6.894-24.964,0c-6.894-6.894-6.894-18.07,0-24.964l10.593-10.602
		c-15.828-11.767-29.149-21.919-37.367-28.239c-5.129-3.937-12.359-3.452-16.931,1.121l-18.132,18.132
		c-5.402,5.402-5.402,14.159,0,19.571l4.935,4.926c6.082,6.091,4.326,16.587-3.584,19.986
		c-87.164,37.429-127.912-34.701-127.912-34.701C33.683,163.305,8.983,331.011,8.983,331.011h503.014
		C511.996,265.14,442.382,266.614,404.212,258.369"/>
	<g>
		<path style="fill:#285680;" d="M471.699,272.817c-22.043-8.642-48.605-10.372-67.487-14.451
			c-8.951-1.924-24.17-9.975-42.108-21.027c1.801,32.521,28.654,58.359,61.617,58.359
			C443.097,295.698,460.373,286.765,471.699,272.817"/>
		<path style="fill:#285680;" d="M70.621,269.214c32.115,0,58.492-24.505,61.493-55.835c-46.91-5.385-69.235-44.826-69.235-44.826
			c-14.707-2.639-28.266,38.603-38.109,80.19C36.078,261.287,52.401,269.214,70.621,269.214"/>
		<path style="fill:#285680;" d="M238.392,304.559c-0.803,0-1.615-0.106-2.419-0.335c-4.696-1.333-7.415-6.223-6.073-10.911
			l9.419-33.086l-47.386,41.463c-1.024,1.121-2.33,1.969-3.822,2.445c-2.816,0.909-5.897,0.335-8.201-1.509
			c-2.039-1.633-3.275-4.105-3.337-6.709c-0.018-1.174,0.177-2.322,0.583-3.381l17.39-61.052c1.342-4.696,6.232-7.442,10.911-6.073
			c4.687,1.342,7.406,6.223,6.073,10.92l-9.401,32.989l48.057-42.063c2.948-2.56,7.247-2.904,10.54-0.812
			c3.302,2.101,4.838,6.118,3.769,9.887l-17.62,61.82C245.772,302.034,242.241,304.559,238.392,304.559"/>
	</g>
</g>
</svg>