<?xml version="1.0" encoding="iso-8859-1"?>
<!-- Uploaded to: SVG Repo, www.svgrepo.com, Generator: SVG Repo Mixer Tools -->
<svg height="800px" width="800px" version="1.1" id="Layer_1" xmlns="http://www.w3.org/2000/svg" xmlns:xlink="http://www.w3.org/1999/xlink" 
	 viewBox="0 0 511.879 511.879" xml:space="preserve">
<g transform="translate(0 -1)">
	<path style="fill:#CC66A1;" d="M281.489,92.792c-6.956,19.8-30.658,27.825-48.207,16.322l-0.388-0.256
		c-22.44-14.883-49.099-13.427-65.227-1.924c0,53.972,12.217,83.509,20.056,96.892c4.246,7.256,6.426,15.457,6.426,23.87v1.086
		c0,12.006-4.767,23.349-12.676,32.38c-58.271,66.578-41.825,156.999-22.66,234.099c1.095,0.362,53.327,17.62,97.006,17.62
		c44.138,0,97.103-17.655,97.103-17.655l0.124,0.124c19.174-77.118,35.655-167.592-22.643-234.187
		c-7.901-9.031-12.668-20.374-12.668-32.38v-1.086c0-8.413,2.172-16.614,6.418-23.87c7.839-13.383,20.065-42.92,20.065-96.892
		c-5.411-3.858-12.023-6.506-19.253-7.83c-4.07-0.742-6.559-4.864-5.182-8.766l17.532-49.885c-9.463-2.18-21.345-3.558-36.034-3.981
		L281.489,92.792z"/>
	<g>
		<path style="fill:#FDD7AD;" d="M337.313,40.451l-17.532,49.885c-1.377,3.902,1.112,8.024,5.182,8.775
			c7.23,1.315,13.842,3.964,19.253,7.821c9.702-8.934,26.518-26.854,26.518-35.31C370.734,57.78,361.818,46.295,337.313,40.451"/>
		<path style="fill:#FDD7AD;" d="M291.176,36.31c-9.737,0-17.585-7.998-17.585-17.726V1h-17.655h-17.655v17.655
			c0,9.807-8.024,17.655-17.832,17.655c-61.652,0.026-79.298,14.919-79.298,35.31c0,8.457,16.808,26.386,26.509,35.31
			c16.137-11.494,42.796-12.959,65.236,1.933l0.38,0.247c17.558,11.502,41.251,3.487,48.216-16.322l19.791-56.32L291.176,36.31z"/>
	</g>
</g>
</svg>